<svg width="25" height="24" viewBox="0 0 25 24" fill="none" xmlns="http://www.w3.org/2000/svg">
<g clip-path="url(#clip0_114_474)">
<path d="M7.94189 24.0006C9.04646 24.0006 9.94189 23.1052 9.94189 22.0006C9.94189 20.8961 9.04646 20.0006 7.94189 20.0006C6.83732 20.0006 5.94189 20.8961 5.94189 22.0006C5.94189 23.1052 6.83732 24.0006 7.94189 24.0006Z" fill="#FFF7F0"/>
<path d="M17.9419 24.0006C19.0465 24.0006 19.9419 23.1052 19.9419 22.0006C19.9419 20.8961 19.0465 20.0006 17.9419 20.0006C16.8373 20.0006 15.9419 20.8961 15.9419 22.0006C15.9419 23.1052 16.8373 24.0006 17.9419 24.0006Z" fill="#FFF7F0"/>
<path d="M23.9259 6.018C23.222 5.34489 22.2796 4.97875 21.3059 5H6.59589L6.33289 2.938C6.2374 2.12869 5.84827 1.38256 5.2393 0.841037C4.63032 0.299518 3.84382 0.000261877 3.02889 0L2.44189 0C2.04407 0 1.66254 0.158035 1.38123 0.43934C1.09993 0.720644 0.941895 1.10218 0.941895 1.5H0.941895C0.941895 1.89782 1.09993 2.27936 1.38123 2.56066C1.66254 2.84196 2.04407 3 2.44189 3H3.02889C3.1107 3.00088 3.18929 3.03202 3.24949 3.08742C3.30969 3.14282 3.34724 3.21855 3.35489 3.3L4.85489 15.059C4.9495 15.8689 5.33827 16.6159 5.94736 17.1581C6.55645 17.7003 7.34345 17.9999 8.15889 18H18.2809C19.485 17.9993 20.6555 17.6035 21.6129 16.8733C22.5704 16.1432 23.2617 15.119 23.5809 13.958L24.8269 9.427C24.993 8.82996 24.9971 8.19945 24.8387 7.6003C24.6804 7.00116 24.3653 6.45501 23.9259 6.018ZM20.6919 13.163C20.5455 13.6903 20.2306 14.1553 19.7953 14.4869C19.36 14.8186 18.8282 14.9988 18.2809 15H8.15889C8.07713 14.9993 7.99854 14.9682 7.93846 14.9128C7.87838 14.8573 7.8411 14.7815 7.83389 14.7L6.97889 8H21.4559C21.5331 7.99942 21.6094 8.01674 21.6789 8.05061C21.7483 8.08448 21.8089 8.13396 21.856 8.19519C21.9031 8.25642 21.9353 8.32772 21.9502 8.40351C21.9651 8.47929 21.9623 8.5575 21.9419 8.632L20.6919 13.163Z" fill="#FFF7F0"/>
</g>
<defs>
<clipPath id="clip0_114_474">
<rect width="24" height="24" fill="white" transform="translate(0.941895)"/>
</clipPath>
</defs>
</svg>
