<svg width="25" height="24" viewBox="0 0 25 24" fill="none" xmlns="http://www.w3.org/2000/svg">
<g clip-path="url(#clip0_114_495)">
<path d="M12.9418 23.4617L12.0758 22.8497C10.9358 22.0437 0.941759 14.7827 0.941759 8.14968C0.877099 6.29118 1.55083 4.48265 2.81568 3.11943C4.08053 1.7562 5.83362 0.949149 7.69176 0.874683C8.71742 0.884763 9.72647 1.13485 10.6381 1.60492C11.5498 2.07498 12.3387 2.75197 12.9418 3.58168C13.5448 2.75197 14.3337 2.07498 15.2454 1.60492C16.157 1.13485 17.1661 0.884763 18.1918 0.874683C20.0499 0.949149 21.803 1.7562 23.0678 3.11943C24.3327 4.48265 25.0064 6.29118 24.9418 8.14968C24.9418 14.7827 14.9478 22.0437 13.8078 22.8497L12.9418 23.4617ZM7.69176 3.87468C6.62973 3.94993 5.64024 4.44107 4.93814 5.24147C4.23604 6.04186 3.878 7.0869 3.94176 8.14968C3.94176 12.0657 9.80476 17.3597 12.9418 19.7607C16.0788 17.3607 21.9418 12.0657 21.9418 8.14968C22.0055 7.0869 21.6475 6.04186 20.9454 5.24147C20.2433 4.44107 19.2538 3.94993 18.1918 3.87468C17.1297 3.94993 16.1402 4.44107 15.4381 5.24147C14.736 6.04186 14.378 7.0869 14.4418 8.14968H11.4418C11.5055 7.0869 11.1475 6.04186 10.4454 5.24147C9.74328 4.44107 8.75379 3.94993 7.69176 3.87468V3.87468Z" fill="white"/>
</g>
<defs>
<clipPath id="clip0_114_495">
<rect width="24" height="24" fill="white" transform="translate(0.941895)"/>
</clipPath>
</defs>
</svg>
