<svg width="25" height="24" viewBox="0 0 25 24" fill="none" xmlns="http://www.w3.org/2000/svg">
<g clip-path="url(#clip0_114_465)">
<path d="M12.3941 14.0188C8.1324 14.404 4.88556 18.0051 4.94213 22.2838V22.5008C4.94213 23.3292 5.61371 24.0008 6.44213 24.0008C7.27056 24.0008 7.94213 23.3292 7.94213 22.5008V22.2238C7.89704 19.5967 9.83579 17.3564 12.4421 17.0238C15.1934 16.751 17.6449 18.7601 17.9177 21.5114C17.9338 21.674 17.942 21.8373 17.9421 22.0008V22.5008C17.9421 23.3292 18.6137 24.0008 19.4421 24.0008C20.2705 24.0008 20.9421 23.3292 20.9421 22.5008V22.0008C20.9372 17.5775 17.3475 13.9957 12.9243 14.0006C12.7474 14.0008 12.5706 14.0069 12.3941 14.0188Z" fill="#FFF7F0"/>
<path d="M12.9424 12C16.2561 12 18.9424 9.31369 18.9424 6C18.9424 2.68631 16.2561 0 12.9424 0C9.6287 0 6.94238 2.68631 6.94238 6C6.94566 9.31233 9.63005 11.9967 12.9424 12ZM12.9424 3C14.5992 3 15.9424 4.34316 15.9424 6C15.9424 7.65684 14.5992 9 12.9424 9C11.2855 9 9.94238 7.65684 9.94238 6C9.94238 4.34316 11.2855 3 12.9424 3Z" fill="#FFF7F0"/>
</g>
<defs>
<clipPath id="clip0_114_465">
<rect width="24" height="24" fill="white" transform="translate(0.941895)"/>
</clipPath>
</defs>
</svg>
