<svg width="24" height="24" viewBox="0 0 24 24" fill="none" xmlns="http://www.w3.org/2000/svg">
<g clip-path="url(#clip0_114_141)">
<path d="M11.9999 23.4617L11.1339 22.8497C9.99387 22.0437 -0.000135449 14.7827 -0.000135449 8.1497C-0.0647952 6.29119 0.608933 4.48266 1.87378 3.11944C3.13863 1.75621 4.89173 0.949161 6.74987 0.874695C7.77553 0.884774 8.78458 1.13486 9.69623 1.60493C10.6079 2.07499 11.3968 2.75198 11.9999 3.5817C12.6029 2.75198 13.3918 2.07499 14.3035 1.60493C15.2152 1.13486 16.2242 0.884774 17.2499 0.874695C19.108 0.949161 20.8611 1.75621 22.1259 3.11944C23.3908 4.48266 24.0645 6.29119 23.9999 8.1497C23.9999 14.7827 14.0059 22.0437 12.8659 22.8497L11.9999 23.4617ZM6.74987 3.8747C5.68783 3.94994 4.69835 4.44108 3.99625 5.24148C3.29415 6.04187 2.93611 7.08691 2.99987 8.1497C2.99987 12.0657 8.86287 17.3597 11.9999 19.7607C15.1369 17.3607 20.9999 12.0657 20.9999 8.1497C21.0636 7.08691 20.7056 6.04187 20.0035 5.24148C19.3014 4.44108 18.3119 3.94994 17.2499 3.8747C16.1878 3.94994 15.1983 4.44108 14.4962 5.24148C13.7941 6.04187 13.4361 7.08691 13.4999 8.1497H10.4999C10.5636 7.08691 10.2056 6.04187 9.50348 5.24148C8.80138 4.44108 7.8119 3.94994 6.74987 3.8747Z" fill="white"/>
</g>
<defs>
<clipPath id="clip0_114_141">
<rect width="24" height="24" fill="white"/>
</clipPath>
</defs>
</svg>
